#N canvas 165 195 958 532 12;
#X obj 426 1153 dac~;
#X obj 337 565 bonk~;
#X obj 343 751 tabplay~ snare1;
#X obj 281 125 soundfiler;
#X floatatom 281 153 0 0 0 0 - - -;
#X msg 343 706 bang;
#X obj 441 917 *~;
#X obj 460 889 line~;
#X msg 560 851 0 100;
#X obj 440 958 hip~ 5;
#X obj 410 633 t b f;
#N canvas 0 22 450 278 (subpatch) 0;
#X array snare1 13632 float 2;
#X coords 0 1 13632 -1 200 140 1;
#X restore 280 186 graph;
#X obj 102 475 adc~ 1;
#X obj 370 600 unpack;
#X obj 459 776 / 100;
#X obj 441 849 *~;
#X msg 544 827 0.2 100;
#X msg 438 486 minvel 25;
#X msg 422 436 thresh 20 25;
#X msg 281 86 read -resize sounds/CS15_LongSnare1.wav snare1 \; pd
dsp 1 \;, f 48;
#X obj 545 800 loadbang;
#X obj 443 401 loadbang;
#X text 613 827 amplitude controls;
#X obj 281 21 bng 52 250 50 0 empty empty TRYCK_FÖR_ATT_STARTA_:D
60 30 0 10 -262144 -1 -1;
#X text 525 427 Threshold som anges för att bonk-objektet ska fatta
vad som är en attack \, och hur lågt volymen måste sjunka för att
den ska kunna starta om.;
#X text 524 487 Minsta velocity för att få ljud i maskineriet.;
#X obj 566 1041 rev1~;
#X obj 585 975 loadbang;
#X text 635 1001 Högre värden -> Längre reverbtid;
#X obj 548 1116 *~;
#X obj 637 1073 hsl 128 15 0 1 0 0 empty empty empty -2 -8 0 10 -262144
-1 -1 0 1;
#X text 779 1073 Volymkontroll;
#X msg 585 999 0.5;
#X text 635 1044 Här är reverb om man vill ha det!;
#X connect 1 1 13 0;
#X connect 2 0 15 0;
#X connect 3 0 4 0;
#X connect 5 0 2 0;
#X connect 6 0 9 0;
#X connect 7 0 6 1;
#X connect 8 0 7 0;
#X connect 9 0 26 0;
#X connect 9 0 0 0;
#X connect 9 0 0 1;
#X connect 10 0 5 0;
#X connect 10 1 14 0;
#X connect 12 0 1 0;
#X connect 13 1 10 0;
#X connect 14 0 15 1;
#X connect 15 0 6 0;
#X connect 16 0 7 0;
#X connect 17 0 1 0;
#X connect 18 0 1 0;
#X connect 19 0 3 0;
#X connect 20 0 16 0;
#X connect 21 0 18 0;
#X connect 21 0 17 0;
#X connect 23 0 19 0;
#X connect 26 0 29 0;
#X connect 27 0 32 0;
#X connect 29 0 0 1;
#X connect 29 0 0 0;
#X connect 30 0 29 1;
#X connect 32 0 26 1;
